<?xml version="1.0" encoding="UTF-8" standalone="no"?>
<svg
   xmlns:dc="http://purl.org/dc/elements/1.1/"
   xmlns:cc="http://creativecommons.org/ns#"
   xmlns:rdf="http://www.w3.org/1999/02/22-rdf-syntax-ns#"
   xmlns:svg="http://www.w3.org/2000/svg"
   xmlns="http://www.w3.org/2000/svg"
   xmlns:sodipodi="http://sodipodi.sourceforge.net/DTD/sodipodi-0.dtd"
   xmlns:inkscape="http://www.inkscape.org/namespaces/inkscape"
   version="1.1"
   x="0px"
   y="0px"
   viewBox="0 0 100 100"
   enable-background="new 0 0 100 100"
   xml:space="preserve"
   id="svg2"
   inkscape:version="0.91 r13725"
   sodipodi:docname="anchor.svg"><metadata
     id="metadata14"><rdf:RDF><cc:Work
         rdf:about=""><dc:format>image/svg+xml</dc:format><dc:type
           rdf:resource="http://purl.org/dc/dcmitype/StillImage" /></cc:Work></rdf:RDF></metadata><defs
     id="defs12" /><sodipodi:namedview
     pagecolor="#ffffff"
     bordercolor="#666666"
     borderopacity="1"
     objecttolerance="10"
     gridtolerance="10"
     guidetolerance="10"
     inkscape:pageopacity="0"
     inkscape:pageshadow="2"
     inkscape:window-width="1920"
     inkscape:window-height="986"
     id="namedview10"
     showgrid="false"
     inkscape:zoom="1.888"
     inkscape:cx="51.059322"
     inkscape:cy="62.5"
     inkscape:window-x="0"
     inkscape:window-y="27"
     inkscape:window-maximized="1"
     inkscape:current-layer="svg2" /><path
     d="M100,50.029c0-12.8-10.479-22.86-22.955-22.86H62.191c5.763,2.948,8.178,7.322,9.89,11.506h4.317  c6.124,0,11.069,5.268,11.069,11.297c0,6.143-4.945,11.506-11.069,11.506H56.39c-2.263,0-4.203-0.628-6.029-1.712  c-4.412-3.328-6.181-8.977-4.203-13.769l-12.914-0.209C30.943,57.122,37.98,68.8,49.601,72.033c1.883,0.59,4.032,0.799,6.181,0.799  h21.32C89.578,72.832,100,62.828,100,50.029z M51.217,28.024c-1.94-0.647-4.089-0.856-6.181-0.799l-22.119-0.057  C10.441,27.168,0,37.172,0,49.971s10.498,22.86,22.975,22.86h14.854c-5.763-2.948-8.178-7.303-9.909-11.506h-4.298  c-6.124,0-11.088-5.268-11.088-11.297c0-6.124,4.964-11.506,11.088-11.506H44.39c2.263,0,4.184,0.647,6.029,1.712  c4.412,3.347,6.181,8.996,4.184,13.769l12.971,0.266C69.836,42.878,62.781,31.2,51.217,28.024z"
     id="path4" /></svg>
