<svg xmlns="http://www.w3.org/2000/svg" xmlns:xlink="http://www.w3.org/1999/xlink" version="1.1" preserveAspectRatio="none" x="0px" y="0px" viewBox="0 0 100 100"><defs><g id="a"><path fill="#000000" stroke="none" d=" M 93.65 6.4 L 93.6 6.3 Q 92.25 5 90.5 5 88.65 5 87.3 6.3 L 6.25 87.35 Q 4.95 88.7 5 90.55 5 92.35 6.25 93.65 L 6.3 93.7 Q 7.65 95 9.5 95 11.2 95 12.55 93.65 L 93.6 12.65 Q 95 11.2 95 9.5 95 7.75 93.65 6.4 M 44.4 7.1 Q 42 9.1 41.6 12.15 33.85 14.7 29.15 21.15 24.82734375 27.01640625 24.3 34.05 24.25 34.9896484375 24.25 35.95 24.25 36.6794921875 24.2 37.4 24.228125 37.5001953125 24.2 37.6 24.2208984375 37.8255859375 24.2 38.05 23.98515625 47.623046875 21.55 55.65 18.95 64.2 14.7 67.7 10.0572265625 71.8982421875 10 78 L 29.65 58.35 Q 32.574609375 49.074609375 32.8 38.05 32.82109375 37.8255859375 32.8 37.6 32.828125 37.5001953125 32.8 37.4 32.85 36.6787109375 32.85 35.95 32.85 34.9796875 32.95 34.05 33.53125 28.2255859375 37.8 24 42.85 19.05 50 19.05 57.1 19.05 62.15 24 62.6169921875 24.4716796875 63.05 24.95 L 69 18.95 Q 64.642578125 14.24453125 58.4 12.15 57.85 9.1 55.55 7.1 53.1 5 50 5 46.85 5 44.4 7.1 M 87.4 84.15 Q 90 81.65 90 78.15 90 72.1 85.1 67.7 81 64.2 78.25 55.65 75.72734375 46.845703125 75.7 36.15 L 67.5 44.35 Q 68.2703125 52.229296875 70.45 59 73.7 69.25 79.4 74.2 81.4 75.75 81.4 78.15 L 33.65 78.15 25.25 86.55 41.4 86.55 Q 41.4 90.2 43.85 92.6 46.4 95 50 95 53.55 95 56 92.6 58.55 90.1 58.55 86.55 L 81.4 86.55 Q 85 86.55 87.4 84.15 Z"></path></g></defs><g transform="matrix( 1, 0, 0, 1, 0,0) "><use xlink:href="#a"></use></g></svg>