<svg xmlns="http://www.w3.org/2000/svg" xmlns:xlink="http://www.w3.org/1999/xlink" version="1.1" preserveAspectRatio="none" x="0px" y="0px" viewBox="0 0 100 100"><defs><g id="a"><path fill="#000000" stroke="none" d=" M 87.4 84.15 Q 90 81.65 90 78.15 90 72.1 85.1 67.7 81 64.2 78.25 55.65 75.7 46.75 75.7 35.95 75.7 27.8 70.85 21.15 66 14.7 58.4 12.15 57.85 9.1 55.55 7.1 53.1 5 50 5 46.85 5 44.4 7.1 42 9.1 41.6 12.15 33.85 14.7 29.15 21.15 24.25 27.8 24.25 35.95 24.25 46.75 21.55 55.65 18.95 64.2 14.7 67.7 10 71.95 10 78.15 10 81.8 12.4 84.15 14.95 86.55 18.55 86.55 L 41.4 86.55 Q 41.4 90.2 43.85 92.6 46.4 95 50 95 53.55 95 56 92.6 58.55 90.1 58.55 86.55 L 81.4 86.55 Q 85 86.55 87.4 84.15 M 62.15 24 Q 67.15 29.05 67.15 35.95 67.15 48.75 70.45 59 73.7 69.25 79.4 74.2 81.4 75.75 81.4 78.15 L 18.55 78.15 Q 18.55 75.6 20.4 74.2 26.15 69.25 29.45 59 32.85 48.6 32.85 35.95 32.85 28.9 37.8 24 42.85 19.05 50 19.05 57.1 19.05 62.15 24 Z"></path></g></defs><g transform="matrix( 1, 0, 0, 1, 0,0) "><use xlink:href="#a"></use></g></svg>